<?xml version="1.0"?>
<svg width="640" height="480" xmlns="http://www.w3.org/2000/svg" xmlns:svg="http://www.w3.org/2000/svg">
 <!-- Created with SVG-edit - https://github.com/SVG-Edit/svgedit-->
 <g class="layer">
  <title>Layer 1</title>
  <path d="m221.5,123.5c-3.88533,0 -4.636002,0 -5.41066,0c-0.79068,0 -1.989014,0 -2.780334,0c-0.767334,0 -1.494675,0 -2.766342,0c-0.791992,0 -1.548004,0 -2.685837,0c-0.675659,0 -1.419327,0 -2.222992,0c-1.300507,0 -2.217865,-0.001122 -2.686508,0.004501c-0.947403,0.011368 -1.897354,0.022644 -3.280655,0.162163c-0.446259,0.045006 -1.309814,0.184258 -2.145844,0.333336c-0.816635,0.145622 -2.019348,0.349487 -2.822159,0.414665c-0.808182,0.065613 -1.634644,0.078857 -2.484009,0.084c-1.335968,0.008087 -1.798767,-0.005226 -2.73999,0.012001c-0.949524,0.017372 -1.425507,0.008705 -2.807999,0.155998c-0.886917,0.09449 -1.752838,0.265205 -2.628006,0.444c-0.448944,0.091721 -1.871506,0.391846 -2.381836,0.489334c-1.074677,0.205292 -1.638916,0.303436 -2.814163,0.5c-0.608536,0.101776 -1.230194,0.203026 -2.509338,0.400002c-1.310196,0.201759 -1.963394,0.296196 -2.605331,0.389336c-0.623734,0.0905 -1.7892,0.255608 -2.317337,0.325333c-1.280991,0.169128 -2.370636,0.108131 -3.110657,0.571999c-0.718964,0.450668 -1.151291,1.340805 -1.442841,2.060669c-0.400238,0.98822 -0.357162,1.952667 -0.357162,2.852661c0,0.899673 0.10788,1.25972 -0.000168,1.899841c-0.144028,0.853287 -0.928207,1.33725 -0.989166,2.085495c-0.08551,1.049622 -0.638382,1.562256 -0.989838,2.335495c-0.363892,0.800598 -0.020828,1.779175 -0.020828,2.680511c0,0.965332 0,1.623993 0,2.631989c0,0.862167 0,1.766678 0,2.666672c0,0.899994 0,1.800003 0,2.699997c0,0.900009 0,1.800003 0,2.600006c0,0.899994 0.194824,1.604889 0.716003,2.283997c0.446289,0.581543 0.192673,1.760147 0.369324,2.432007c0.266663,1.01416 0.698166,1.77771 1.267334,2.43132c0.51947,0.596542 0.965897,1.402252 1.534012,1.852676c0.721664,0.572174 1.541061,0.925751 2.313156,1.521164c0.60881,0.469482 1.347397,1.059265 2.153503,1.617493c0.661179,0.457855 1.186508,1.315079 1.832001,1.625336c0.895248,0.430313 1.815536,0.398804 2.61467,0.436005c0.917633,0.042709 1.528732,0.854263 2.241669,1c0.953003,0.194824 1.776535,0.383591 2.472992,0.801331c0.891113,0.5345 1.397049,1.32489 2.157333,1.762665c0.802246,0.461929 1.578278,0.414352 2.559998,0.434677c0.957993,0.019836 1.948715,0.135941 2.593338,0.437332c0.707794,0.330933 1.514359,1.013184 2.341339,1.563995c0.644455,0.429245 1.425217,0.759537 2.428833,0.947327c0.741852,0.138809 1.60614,0.477371 2.404495,0.886002c0.79895,0.408936 1.314697,1.023224 2.137329,1.366669c0.861023,0.359467 1.54306,0.417633 2.598343,0.900009c0.751205,0.343384 1.403656,0.952209 2.110992,1.289322c0.813171,0.387558 1.836258,0.524185 2.632507,0.610672c0.751755,0.08165 1.680756,0.438385 2.488831,0.716003c1.010223,0.347061 1.856247,0.224884 2.865326,0.617325c0.748596,0.291138 1.332138,0.883041 2.166672,1.5c0.584137,0.431839 1.397079,0.867996 2.200165,1.266678c0.817734,0.405945 1.477081,0.720871 2.482498,1.098663c0.790497,0.297043 1.54126,0.545929 2.512009,0.748657c0.768738,0.160538 1.590973,0.301758 2.347,0.615173c0.880737,0.365112 1.768158,0.967575 2.353821,1.442841c0.594086,0.482101 1.105804,1.041794 2.183167,1.851654c0.671783,0.504974 1.366379,0.852539 2.342514,1.243011c0.787628,0.315063 1.593521,0.550613 2.435989,0.999832c0.642868,0.342789 1.659943,0.68895 2.281509,0.925491c0.90538,0.344559 0.668945,1.494843 0.918488,2.264832c0.257935,0.795898 0.913025,1.418259 0.941513,2.227173c0.033859,0.961243 -0.07991,1.920151 0.285324,2.684006c0.348984,0.729858 0.680252,1.657303 0.768677,2.31749c0.150909,1.126694 0.30368,1.794769 0.447327,2.522842c0.15123,0.766571 0.348999,1.956894 0.414673,2.756989c0.064819,0.789566 0.079987,1.565308 0.085327,3.034668c0.002472,0.682678 0,1.341339 0,2.319336c0,1.014008 0,1.728668 0,2.805664c0,0.674667 0.073273,1.783417 -0.035995,2.681671c-0.111282,0.914749 -0.402863,1.606766 -0.611343,2.35466c-0.287399,1.030975 -0.412766,1.897003 -0.778,2.830673c-0.27298,0.697845 -0.513916,1.567856 -0.741333,2.507996c-0.224091,0.926392 -0.51062,1.653854 -0.71199,2.523834c-0.204712,0.88446 -0.441605,1.815201 -0.825836,2.490173c-0.452072,0.794144 -1.049728,1.525681 -1.24733,2.314331c-0.198196,0.791 -0.476563,1.767822 -0.920166,2.595673c-0.338303,0.631348 -0.749054,1.305466 -1.328003,2.485153c-0.206604,0.421005 -0.595169,1.299728 -1,2.170837c-0.197632,0.425262 -0.759415,1.61412 -1.395508,2.510666c-0.361328,0.509277 -0.918152,1.087662 -1.651825,1.823334c-0.635803,0.637543 -1.238007,1.238007 -1.773499,1.773499c-0.580505,0.580505 -1.367615,1.39003 -1.979172,1.958344c-0.589111,0.547455 -1.396011,1.14566 -2.235992,1.646164c-0.924927,0.551117 -1.452423,0.849869 -2.243179,1.374664c-0.514816,0.34166 -1.522263,1.15741 -2.171494,1.58934c-0.855927,0.569443 -1.614548,0.822983 -2.17067,0.974655c-1.166443,0.318115 -2.078812,0.381683 -2.678665,0.436005c-0.900223,0.081528 -2.103455,0.272217 -2.699997,0.436005c-0.905685,0.248672 -1.797058,0.57309 -2.699997,0.859497c-0.598114,0.189713 -1.492432,0.471878 -2.705338,0.619171c-0.634567,0.077057 -1.338623,0.078964 -2.136002,0.084c-1.44397,0.009125 -1.994659,0.001328 -3.160004,0.001328c-0.598663,0 -1.197327,0 -2.362671,0c-1.069321,0 -1.993332,0 -2.781326,0c-0.979492,0 -2.033493,0 -2.740005,0c-0.724487,0 -1.857422,0.00766 -2.519989,-0.004501c-1.044312,-0.019165 -1.745712,0.011032 -2.922668,-0.280838c-0.725586,-0.179932 -1.612305,-0.705444 -2.157333,-1.12532c-0.960556,-0.73999 -1.389496,-1.062241 -2.093842,-1.58934c-0.675491,-0.505493 -1.367126,-1.371262 -1.522156,-2.199997c-0.170441,-0.911057 -0.652985,-1.448868 -1.098846,-2.342667c-0.345108,-0.691803 -0.548203,-1.533936 -1.221329,-2.314499c-0.611206,-0.708786 -1.304672,-0.993912 -2.077164,-1.626831c-0.6008,-0.492233 -1.462067,-1.323776 -1.965332,-1.890671c-0.674362,-0.759613 -1.092682,-1.436081 -1.350662,-2.226669c-0.3181,-0.974823 -0.284225,-1.81192 -0.506668,-2.598495c-0.225235,-0.796432 -0.529465,-1.821793 -0.862671,-2.598831c-0.336945,-0.785782 -1.095444,-1.355682 -1.730667,-2.026672c-0.485443,-0.512772 -0.885117,-1.584763 -1.542496,-2.121994c-0.702194,-0.573853 -1.096954,-1.009827 -1.726837,-1.767334c-0.602615,-0.724716 -0.957779,-1.415054 -1.620499,-1.928177c-0.696396,-0.539185 -1.417297,-0.985703 -1.995499,-1.651825c-0.623505,-0.718307 -1.611816,-0.898224 -2.014664,-1.506668c-0.543884,-0.821442 -1.070145,-1.461655 -1.452011,-2.198669c-0.390625,-0.753952 -0.8125,-1.5 -0.843994,-2.389328l-0.510162,-0.589844" fill="none" id="svg_1" stroke="#000000" stroke-width="5"/>
  <path d="m257.5,249.5c0.001343,-1.720001 -0.000336,-2.170074 0.020844,-3.25c0.01236,-0.630066 0.032257,-1.320175 0.064484,-2.070007c0.072235,-1.680405 0.13385,-2.609146 0.200012,-3.591995c0.069397,-1.031158 0.149384,-2.104111 0.235504,-3.212997c0.08847,-1.139114 0.183044,-2.302048 0.280487,-3.483002c0.197418,-2.392105 0.297821,-3.592087 0.399994,-4.791992c0.102173,-1.200104 0.206879,-2.400238 0.319519,-3.600006c0.112671,-1.200226 0.230164,-2.400665 0.364502,-3.600006c0.268982,-2.401413 0.432068,-3.599365 0.598663,-4.790665c0.164795,-1.178375 0.338623,-2.335083 0.515991,-3.463501c0.171997,-1.094238 0.344818,-2.146088 0.515991,-3.148499c0.312775,-1.831451 0.461517,-2.646317 0.597351,-3.394669c0.124268,-0.684631 0.239868,-1.308014 0.345001,-1.873489c0.09491,-0.510513 0.181519,-0.968735 0.255005,-1.37851c0.122559,-0.683533 0.166992,-0.964401 0.201324,-1.209335c0.029755,-0.212448 0.051086,-0.397171 0.064484,-0.557999c0.011719,-0.140533 0.017548,-0.265305 0.019501,-0.377991c0.00354,-0.205307 0.001251,-0.305511 0.001343,-0.615997c0.000244,-0.913345 0.023254,-1.586273 0.108002,-2.340012c0.057556,-0.512024 0.140076,-1.131882 0.391998,-2.749329c0.158997,-1.020798 0.351105,-2.160156 0.558014,-3.389999c0.217072,-1.290146 0.442444,-2.609924 0.665985,-3.930008c0.218445,-1.289917 0.433014,-2.518539 0.776001,-4.679993c0.13916,-0.876923 0.247986,-1.619461 0.328491,-2.242493c0.066833,-0.51709 0.113068,-0.944687 0.139496,-1.297501c0.021881,-0.292282 0.029297,-0.539993 0.032013,-0.960007c0.002563,-0.398666 -0.103363,-1.211777 0.283997,-2.11467c0.410797,-0.95752 0.729401,-1.532669 0.885345,-2.282669c0.260895,-1.254654 0.397888,-1.790848 0.53598,-2.371323c0.29303,-1.231735 0.445892,-1.853546 0.589355,-2.462677c0.376984,-1.600815 0.534332,-2.384216 0.665314,-3.012665c0.196014,-0.940369 0.538788,-2.256332 0.704346,-2.849823c0.188934,-0.677231 0.404114,-1.42926 0.632996,-2.251511c0.245911,-0.883392 0.502625,-1.821625 0.759003,-2.809494c0.266479,-1.026764 0.782959,-3.1772 1.02182,-4.286331c0.239838,-1.113571 0.459595,-2.222931 0.66452,-3.313507c0.198639,-1.057129 0.377167,-2.070236 0.538483,-3.025497c0.14917,-0.883438 0.387238,-2.386246 0.47583,-2.983337c0.073822,-0.49762 0.13092,-0.907394 0.171021,-1.240494c0.032104,-0.266617 0.045715,-0.479019 0.069336,-0.781342c0.072754,-0.930634 0.928894,-1.431412 1.002655,-2.381332c0.060913,-0.784592 0.062744,-1.441025 0.170654,-2.373322c0.149872,-1.294876 0.270203,-2.095123 0.398682,-2.985336c0.138367,-0.958817 0.289948,-1.964325 0.451508,-2.995499c0.162445,-1.036819 0.326202,-2.057831 0.49649,-3.040512c0.307343,-1.773514 0.457062,-2.524139 0.596008,-3.182663c0.121552,-0.576073 0.23999,-1.074661 0.345001,-1.505997l0.095001,-0.37133" fill="none" id="svg_2" stroke="#000000" stroke-width="5"/>
  <path d="m277.5,128.5c0.718658,0.179993 1.512329,0.822021 2.053345,1.423996c0.648376,0.72142 0.972961,1.13414 1.645813,1.984177c0.336914,0.425659 1.26181,1.646301 1.530182,2.023834c0.506195,0.712036 0.968933,1.407578 1.367981,2.135986c0.634277,1.157745 1.002197,2.033066 1.202667,2.472c0.399048,0.873779 0.755249,1.732559 1.399689,2.795334c0.366516,0.604431 1.01651,1.237015 1.46698,1.998001c0.440674,0.744446 0.577911,1.671387 0.944,2.341339c0.532013,0.973602 1.119263,1.492752 1.689331,2.129837c0.74057,0.827606 1.149963,1.495407 1.414673,2.211502c0.346344,0.936859 0.172028,1.985306 0.727997,2.584c0.58905,0.634338 1.289642,1.177902 1.910004,1.847321c0.53653,0.578964 0.555176,1.382919 0.68335,2.227341c0.145935,0.961487 0.738342,1.459091 1.353333,2.225327c0.60022,0.747833 0.628357,1.513367 1.057312,2.436005c0.274017,0.589355 1.038055,1.560928 1.532501,2.143173c0.4534,0.533905 0.955566,1.417648 1.1875,2.520828c0.116699,0.555099 0.348389,1.543182 0.537842,2.256332c0.286743,1.079361 0.496368,1.755005 0.774658,2.681168c0.237366,0.789932 0.422882,1.775925 0.690186,2.615829c0.231049,0.725998 0.695953,1.648804 0.97998,2.378677c0.298157,0.766144 0.628082,1.964523 0.740845,2.758987c0.108551,0.764816 0.101196,1.50322 0.276489,2.475677c0.151093,0.838181 0.484436,1.603622 1.166687,2.666656c0.41449,0.645813 0.910919,1.30368 1.380005,1.980011c0.437317,0.630569 1.026672,1.636185 1.32666,2.32666c0.393921,0.906662 0.826385,1.612686 1.109314,2.14534c0.548248,1.03215 0.738892,1.762329 0.898834,2.667328c0.171265,0.96904 0.367157,1.779709 0.656342,2.594666c0.369446,1.041168 0.700623,1.740692 1.052673,2.462494c0.403168,0.826614 0.739716,1.451447 1.221985,2.490173c0.320526,0.690338 0.744934,1.653366 0.906525,2.481171c0.164612,0.843216 0.042023,1.764572 0.116974,2.724167c0.057007,0.729675 0.438141,1.780838 0.702667,2.509827c0.292633,0.806412 0.467316,1.211777 0.726685,2.034164c0.436951,1.385452 0.544647,2.229156 0.565338,3.017334c0.02301,0.875534 0.002655,1.873337 0.002655,2.546677c0,1.186661 -0.06842,2.007416 0.166656,2.853333c0.194794,0.700974 0.607452,1.510147 0.748016,2.515991c0.110596,0.791428 0.084656,1.548004 0.085327,2.64534c0.00061,0.976501 -0.052643,1.841583 0.020844,2.692825c0.085144,0.986298 0.432281,1.769608 0.626495,2.379166c0.314331,0.986603 0.300598,1.818344 0.574158,2.800171c0.234467,0.841507 0.603699,1.475998 0.977173,2.483841c0.299805,0.809097 0.57077,1.622559 0.716003,2.629333c0.120422,0.834671 0.001373,1.816849 0.170654,2.570663c0.17926,0.798203 0.645081,1.501801 0.829346,2.514664c0.137634,0.756546 -0.138916,2.011063 0.442505,2.54866c0.666199,0.615982 1.357483,0.939346 1.617493,1.86734l0.191986,0.852005l0.711853,0.554825" fill="none" id="svg_3" stroke="#000000" stroke-width="5"/>
  <path d="m263.5,190.5c0.166656,0.833328 1,0.999924 1.87149,1c0.893341,0.000092 1.509399,-0.007782 2.632507,0.035995c0.424042,0.016525 1.8302,0.123337 2.864014,0.248001c0.537811,0.06485 1.082458,0.142761 2.181335,0.290665c0.545227,0.07338 2.116486,0.269073 3.075989,0.340012c0.446503,0.03302 1.270386,0.073563 2.31601,0.084c1.002594,0.01001 2.058655,0.001266 2.766663,0.001328c1.056335,0.000092 1.65976,-0.014816 2.687988,0.035995c0.72345,0.035751 1.785156,0.17363 2.778656,0.389343c0.652405,0.141663 1.30304,0.341843 2.706696,0.489334c0.720367,0.075699 1.421295,0.079987 2.618652,0.085327c0.791992,0.003525 1.700012,0 2.600159,0c0.785187,0 1.725189,0 2.733185,0c0.791992,0 1.650665,0 2.513977,0c0.895508,0 1.852692,0 2.752838,0c0.785187,0 1.725189,0 2.733185,0l0.755981,0l0.910675,0l0.899994,0" fill="none" id="svg_4" stroke="#000000" stroke-width="5"/>
  <path d="m348.5,122.5c0,2.690666 0,3.604164 0,4.333168c0,1.333504 -0.006317,1.854057 0.009003,3.027c0.008606,0.658554 0.028168,1.369202 0.062988,2.134491c0.037476,0.82373 0.080902,1.709564 0.261353,3.672012c0.099701,1.084106 0.232819,2.225708 0.376495,3.415497c0.148224,1.227554 0.310272,2.480423 0.475494,3.748505c0.165771,1.272247 0.338379,2.536514 0.64801,5.002655c0.148041,1.179123 0.282257,2.31575 0.404999,3.406509c0.117157,1.041245 0.222168,2.030777 0.315002,2.9655c0.087036,0.876297 0.167328,1.691406 0.279999,3.127991c0.048309,0.615921 0.083679,1.16922 0.109497,1.666504c0.023254,0.448059 0.038055,0.854294 0.046478,1.225494c0.007782,0.34314 0.009857,0.665344 0.010681,1.274673c0.000397,0.300659 -0.000061,0.605347 0.004486,0.917999c0.00473,0.324692 0.004089,0.666031 0.052673,1.41066c0.087433,1.33963 0.225677,2.406143 0.295502,2.977509c0.071472,0.584656 0.223816,1.756271 0.294678,2.326004c0.190826,1.533905 0.271088,2.347626 0.327332,3.041168c0.052948,0.653137 0.18866,2.160385 0.247009,2.633987c0.132446,1.074966 0.22171,1.662521 0.319977,2.276001c0.101624,0.634552 0.328705,1.941589 0.625,3.25c0.146484,0.646881 0.314117,1.280502 0.481506,1.904999c0.327301,1.221008 0.500702,1.812454 0.641998,2.400009c0.405945,1.688187 0.487061,2.237564 0.59552,3.295502c0.052063,0.507935 0.101349,1.483353 0.111664,2.394165c0.013947,1.229248 0.002655,1.96666 0.002655,2.671997c0,1.067993 0,2.24234 0,2.665329c0,0.863998 0,1.712006 0,2.496002c0,1.410004 0,2.338669 0,3.138672c0,0.835999 0,1.852661 0,2.547333c0,1.016663 0,1.96167 0,2.623337c0,1.048157 0,1.886658 0,2.517334c0,1.033493 0,2.147995 0,2.922653c0,0.79068 0,1.989014 0,2.780334c0,0.767334 0,1.494675 0,2.765839c0,0.760498 0,1.555161 0,2.543167c0,0.821335 0,1.674667 0,2.615997c0,0.768005 0.158264,1.750473 -0.166656,2.717331c-0.273682,0.814331 -0.815338,1.576797 -0.833344,2.488007c-0.013397,0.678528 0,1.657166 0,2.678665c0,0.800003 0.011841,1.651489 -0.283997,2.483994c-0.313629,0.882614 -0.687408,1.757401 -0.716003,2.616013c-0.029968,0.89949 0,1.699997 0,2.599991c0,0.900009 0,1.800003 0,2.699997c0,0.900009 0,1.800003 0,2.700012c0,0.899994 0,1.699997 0,2.599991l-0.057159,0.942841l-0.658844,0.441162" fill="none" id="svg_5" stroke="#000000" stroke-width="5"/>
  <path d="m349.5,124.5c2.609009,0 3.514343,0 4.642822,0c0.667023,0 1.378021,0 2.109009,0c1.427002,0 2.100006,0 2.769012,0c1.048492,0 2.222321,0 3.097992,0c0.463837,0 1.438507,0 1.947327,0c1.600494,0 2.155334,0 3.291016,0c0.578827,0 1.163666,0 2.347321,0c0.596832,0 1.795502,0 2.999512,0c0.609497,0 1.227997,0 2.503998,0c0.663483,0 1.347992,0 2.791992,0c0.763489,0 1.548004,0 2.344513,0c0.7995,0 1.592987,0 2.37149,0c0.754486,0 1.475983,0 3.355011,0c0.516998,0 1.412994,0 2.501984,0c0.927002,0 1.817993,0 2.654999,0c0.93866,0 1.886658,0 2.756012,0c0.863312,0 1.828308,-0.136139 2.682648,0.333336c0.734039,0.403366 1.103516,1.098785 2.080688,1.556831c0.869232,0.407455 1.550812,0.610176 2.585999,0.943169c0.775787,0.24955 1.675232,0.409843 2.377319,0.813332c0.819519,0.470993 1.411896,0.984009 1.953339,1.563995c0.706238,0.7565 1.175873,1.593704 1.634674,2.304001c0.481049,0.744766 1.085327,1.286026 1.854004,1.789841c0.693451,0.454498 1.482483,1.169373 1.847321,1.737167c0.405792,0.631516 0.9729,1.65062 1.520844,2.458328c0.375244,0.553146 0.971008,1.34024 1.574646,2.042831c0.561035,0.653015 1.266571,1.43869 1.647339,2.061676c0.375641,0.614594 0.869232,1.812683 1.052673,2.352661c0.287811,0.847183 0.555969,2.040649 0.619171,2.640167c0.090515,0.858643 -0.075836,1.646744 0.106659,2.751999c0.168182,1.018478 0.693146,1.650604 1.127991,2.399994c0.528564,0.910919 0.813934,1.576706 0.850677,2.550674c0.033966,0.900696 0.06134,1.59436 0.425323,2.52533c0.272858,0.697906 0.56424,1.653656 0.574677,2.574661c0.010284,0.908951 0,1.933334 0,2.609833c0,0.775513 0,1.823502 0,2.764847c0,0.677994 0,1.6465 0,2.439987c0,1.016006 0,1.97551 0,2.952011c0,0.669327 0,1.833328 0,2.622665c0,0.725327 0.118408,1.761871 -0.357178,2.510666c-0.509552,0.802231 -1.201996,1.237213 -1.809479,2.199997c-0.340729,0.540024 -0.6633,1.190048 -1.044006,1.860001c-0.384583,0.676819 -1.174011,1.879501 -1.578674,2.35733c-0.535431,0.632263 -1.394958,1.347122 -1.906158,2.092499c-0.47345,0.690308 -0.679413,1.451447 -1.004517,2.18483c-0.465912,1.051086 -1.03595,1.728027 -1.783997,2.205338c-0.672821,0.429306 -1.57309,1.086304 -2.211487,1.442841c-0.845673,0.47229 -1.83252,0.159729 -2.609009,0.370667c-0.955322,0.259521 -1.346008,1.054337 -1.906158,1.74649c-0.386108,0.477066 -1.136505,1.354431 -1.953339,1.782669c-0.90567,0.474808 -1.722778,0.533463 -2.49765,0.809998c-0.802979,0.286545 -1.758606,0.534012 -2.553009,0.622009c-0.774689,0.085815 -1.791046,0.363556 -2.533508,0.672668c-0.879761,0.366272 -1.795166,0.375351 -2.615845,0.778c-0.869659,0.426666 -1.736664,0.574661 -2.564667,0.574661c-1.056824,0 -1.786499,0 -2.592163,0c-0.825653,0 -1.979156,0 -2.627167,0c-0.85199,0 -1.703979,0 -2.71582,0c-0.789673,0 -1.615326,0 -2.42099,0c-1.329346,0 -1.981842,0 -3.036682,0c-0.699341,0 -1.678497,0 -2.467834,0c-1.044006,0 -1.906158,0 -2.810669,0c-0.899994,0 -1.799988,-0.001328 -2.699982,0c-0.901337,0.001343 -1.611603,0.134842 -2.352692,0.705338c-0.721832,0.555679 -1.449768,1.208939 -2.347321,1.294662c-0.796356,0.076065 -1.700012,0 -2.600006,0c-0.899994,0 -1.842377,0.267822 -2.695496,-0.004501c-0.820496,-0.261917 -1.895386,-0.99408 -1.617828,-1.711502c0.277283,-0.716766 1.613342,-0.283997 2.513336,-0.283997c0.899994,0 1.900696,-0.102905 2.601318,0.567993c0.524261,0.502029 1.100098,1.289032 1.973328,1.410675c0.931244,0.12973 1.959381,-0.125168 2.625336,0.106659c0.885681,0.308319 1.599457,0.896667 2.5,0.914673c0.899841,0.01799 1.800171,0 2.585358,0c0.940002,0 1.947998,0 2.703979,0c0.910675,0 1.82135,0 2.73233,0c0.720001,0 1.845154,-0.011887 2.640015,0.004501c0.885376,0.01825 1.528839,0.054214 2.559845,0.216995c0.738922,0.116669 1.500458,0.294586 2.28299,0.483002c1.197266,0.288269 1.994659,0.493561 2.784821,0.695496c0.775177,0.198105 1.530304,0.383011 2.924011,0.800003c0.642365,0.1922 1.533325,0.478821 2.320007,0.800003c0.919708,0.375504 1.50119,0.881897 2.181335,1.563995c0.564484,0.566071 0.941589,1.344772 1.547821,1.936005c0.657776,0.641495 1.446655,0.801758 2.222839,1.100006c1.047089,0.402359 1.762177,0.69017 2.610168,1.099991c0.809082,0.391006 1.641418,0.79425 2.204498,1.270676c0.860809,0.728333 1.157898,1.295471 1.742828,1.966827c0.733948,0.842392 1.421326,1.207733 2.293152,1.637161c0.822723,0.405243 1.636444,0.41127 2.53067,0.758667c0.810455,0.31485 1.35434,0.656281 2.063995,1.269333c0.853302,0.737137 1.183319,1.406326 1.769348,2.230667c0.559235,0.786652 1.155396,1.430832 1.814331,1.866669c0.897125,0.593399 1.717896,0.702454 2.332336,1.100006c0.911407,0.589706 1.035034,1.540314 1.374176,2.199997c0.519836,1.011169 1.217957,1.524536 1.443146,2.399994c0.223328,0.868164 0.67804,1.471848 0.978851,2.309845c0.273468,0.761826 -0.007263,1.684723 0.278503,2.611664c0.221771,0.719391 0.663361,1.671692 0.742645,2.467834c0.103516,1.039474 0.036011,1.835999 0.036011,2.694656c0,0.863342 0,1.758835 0,2.717346c0,0.965332 0,1.634659 0,2.399994c0,0.994171 0.005585,1.913345 0,2.877838c-0.005341,0.920868 -0.168152,1.883469 -1,2.354156c-0.729645,0.412857 -1.468872,0.721268 -2.201324,1.365341c-0.534332,0.469849 -1.454529,0.768295 -2.203186,0.796829c-0.996124,0.037964 -1.84024,-0.008835 -3.017151,0.22583c-0.545013,0.108673 -1.420105,0.377747 -2.065002,0.494675c-1.387451,0.251556 -2.127747,0.255783 -2.85199,0.273331c-0.691864,0.016769 -1.890686,0.01059 -2.840027,0.010666c-1.021484,0.000092 -1.637482,-0.03772 -2.506653,0.085327c-1.009491,0.142914 -1.831604,0.431107 -2.419159,0.562012c-1.188385,0.264771 -2.088104,0.297394 -2.938354,0.405334c-1.040924,0.132156 -1.706268,0.419571 -2.555817,0.66333c-0.982666,0.281967 -1.744171,0.281738 -2.644165,0.283997c-0.959839,0.002396 -1.727844,0 -2.771515,0c-0.806976,0 -1.388336,0 -2.585663,0c-0.899994,0 -1.5,0 -2.699646,0c-0.879028,0 -1.686005,0 -2.729675,0c-0.768005,0 -1.670685,0 -2.570679,0c-0.832001,0 -1.899994,0 -2.762482,0c-0.658356,0 -1.33667,0 -2.59436,0c-0.760498,0 -1.876495,0 -2.632477,0c-0.910675,0 -1.810669,0 -2.710663,0c-0.900024,0 -1.853485,0.181335 -2.700012,-0.166672c-0.671082,-0.275894 -1.52063,-0.822906 -2.32132,-0.833328c-0.853271,-0.011093 -1.802765,0.135742 -2.778503,-0.000168c-0.802063,-0.11171 -1.338074,-0.928818 -2.157501,-0.989166c-0.906952,-0.066803 -1.690857,-0.010666 -2.481354,-0.010666l-1.118164,-0.000168l-0.855164,-0.085159l-0.066498,-0.793167" fill="none" id="svg_6" stroke="#000000" stroke-width="5"/>
  <path d="m260.770069,349.619485c3.84959,-3.000283 12.24013,1.855112 11.939258,-5.969626c3.813201,-2.686993 6.750087,-8.575711 0.584344,-10.546988c-3.513523,-1.685407 -5.162649,3.727461 -6.385488,4.068768c-2.537644,-3.535987 -1.105803,-9.299737 -0.106987,-13.035557c3.191617,-1.9856 8.42487,-4.251589 4.731651,-8.675804c-0.765195,-4.829114 -1.233603,-10.462321 -5.794925,-13.381268c-3.404266,-2.0447 -8.211138,-3.994013 -6.540524,-8.794027c-2.197809,-3.315044 -4.742744,-7.847012 -3.283778,-11.940064c3.327547,-0.589688 2.936781,7.82003 3.571126,6.042922c-1.24988,-2.704112 2.987578,-8.930228 2.745131,-3.189669c-0.255785,2.059366 -0.090132,6.232008 1.041251,2.099122c3.067096,-4.556409 0.058937,7.898465 3.069478,2.955793c2.123798,-0.687484 1.476666,3.043801 3.526404,1.198894c2.243985,1.714317 3.887303,2.097615 3.879688,4.946561c2.99024,1.080994 5.221058,2.869123 4.628661,5.711267c5.835748,-1.408072 0.846612,5.870228 5.00003,7.899865c2.23885,3.549273 3.245252,7.105162 3.083912,11.320192c4.60824,-1.273531 7.647443,-6.514697 12.406736,-8.145457c5.343343,-2.476285 7.257797,-8.632446 8.418299,-13.949938c0.518134,-2.565667 3.770551,-2.44005 2.771458,0.44198c3.742711,-4.033622 2.180604,-9.906209 3.237536,-14.811386c0.338869,-2.743601 -0.760937,-8.791828 1.549141,-9.356622c3.446765,3.09385 -0.76556,9.933648 2.594284,11.986691c2.368499,-4.419343 1.528977,-9.705319 1.657243,-14.528707c-0.057893,-2.784156 2.704706,-4.627255 2.571155,-0.653122c1.158567,3.430357 -0.132113,10.512318 0.538206,11.760727c2.633599,-4.071877 2.070655,-9.555414 4.863026,-13.38043c3.841857,1.441119 -1.088847,7.90841 -0.964092,11.334375c0.514986,2.631025 4.280382,-7.705108 4.46998,-2.006488c-1.734817,1.506122 -1.444513,5.653083 0.493853,2.312707c0.748712,-2.74319 5.870081,-1.823379 2.564956,0.680388c-2.454295,2.131677 4.305994,1.981799 1.346456,4.325336c1.974549,3.261125 -3.397724,5.189648 -0.323701,7.540251c-0.176805,0.946721 2.453528,2.789699 1.290866,5.062909c1.159086,2.09336 -4.126602,3.452482 -0.677618,4.884691c0.199497,4.881846 -5.970177,8.24831 -4.618243,12.806076c-0.398518,5.492722 -4.542892,10.102136 -8.978147,13.005227c-4.097434,0.77698 -7.275765,2.422621 -10.797696,4.69322c-2.319099,0.039864 -3.142402,0.029009 -4.355156,1.70281c-1.908809,-1.480764 -5.056331,-3.718476 -4.516878,0.766017c0.816905,5.569186 7.882474,6.122822 11.640526,9.085568c4.008199,1.41477 9.250562,6.117178 4.909813,9.798419c-0.41998,5.232855 -7.383339,2.098584 -9.191817,3.908912c-2.594741,0.387901 -2.324407,2.21944 -4.629617,0.035456c-2.245134,3.008945 -7.267301,-0.247987 -9.661755,-1.552984c-3.88392,1.853184 -5.659615,-7.461451 -6.373788,-0.941308c-1.577758,4.431761 -7.985755,-0.331107 -7.954247,5.335372c-2.931744,-0.602393 -3.069716,3.979765 -6.2142,3.519468c1.977753,-0.918297 3.322979,-6.169407 -0.22737,-3.637894c-2.90359,-2.205678 -1.226895,5.427713 -3.621094,1.453195c-0.526653,-5.160022 5.33363,-5.261851 8.635973,-6.188823c1.185994,-2.998978 2.687522,-6.94145 2.372897,-9.833611c-3.121505,1.254722 -5.858906,3.94457 -9.50068,4.17304c0.226705,2.725705 -1.885113,7.129975 -5.132097,4.593966c4.668097,1.81997 2.605475,-8.174557 -0.21554,-3.235676c-1.105833,3.258544 -0.968816,-4.707732 -4.16717,-2.388891c-1.676343,1.21924 -0.538206,4.042529 -2.203574,0.767505c-0.323897,-0.66028 -0.374602,-1.597908 0.302843,-2.073357l0,0.000007z" fill="none" id="svg_7" stroke="#000000" stroke-width="5"/>
 </g>
</svg>